<?xml version="1.0" encoding="UTF-8"?>
<svg xmlns="http://www.w3.org/2000/svg" xmlns:xlink="http://www.w3.org/1999/xlink" width="100px" height="100px" viewBox="0 0 100 100" version="1.1">
<g id="surface1">
<path style=" stroke:none;fill-rule:nonzero;fill:rgb(60.392157%,28.627451%,57.647059%);fill-opacity:1;" d="M 94.019531 29.5625 C 94.019531 27.910156 93.667969 26.417969 92.933594 25.167969 C 92.230469 23.921875 91.171875 22.890625 89.761719 22.078125 C 78.042969 15.324219 66.300781 8.570312 54.582031 1.816406 C 51.410156 0 48.371094 0.0546875 45.226562 1.898438 C 40.5625 4.636719 17.183594 18.035156 10.238281 22.078125 C 7.363281 23.730469 5.980469 26.28125 5.980469 29.589844 L 5.980469 70.382812 C 5.980469 72.011719 6.332031 73.449219 7.011719 74.695312 C 7.714844 75.96875 8.800781 77.054688 10.238281 77.894531 C 17.210938 81.9375 40.5625 95.308594 45.226562 98.074219 C 48.371094 99.917969 51.4375 100 54.582031 98.15625 C 66.300781 91.375 78.042969 84.648438 89.761719 77.894531 C 91.226562 77.054688 92.285156 75.996094 92.988281 74.695312 C 93.667969 73.449219 94.019531 72.011719 94.019531 70.382812 Z M 94.019531 29.5625 "/>
<path style=" stroke:none;fill-rule:nonzero;fill:rgb(41.568627%,8.235294%,46.666667%);fill-opacity:1;" d="M 50.109375 49.824219 L 6.957031 74.667969 C 7.660156 75.941406 8.746094 77.027344 10.183594 77.867188 C 17.15625 81.910156 40.507812 95.28125 45.171875 98.046875 C 48.316406 99.890625 51.382812 99.972656 54.53125 98.128906 C 66.246094 91.347656 77.992188 84.621094 89.707031 77.867188 C 91.171875 77.027344 92.230469 75.96875 92.933594 74.667969 Z M 50.109375 49.824219 "/>
<path style=" stroke:none;fill-rule:nonzero;fill:rgb(41.568627%,8.235294%,46.666667%);fill-opacity:1;" d="M 37.332031 57.175781 C 39.855469 61.566406 44.574219 64.523438 49.972656 64.523438 C 55.425781 64.523438 60.171875 61.539062 62.667969 57.09375 L 50.109375 49.824219 Z M 37.332031 57.175781 "/>
<path style=" stroke:none;fill-rule:nonzero;fill:rgb(50.588235%,18.823529%,51.764706%);fill-opacity:1;" d="M 94.019531 29.5625 C 94.019531 27.910156 93.667969 26.417969 92.933594 25.167969 L 50.109375 49.824219 L 92.988281 74.667969 C 93.667969 73.421875 94.019531 71.984375 94.019531 70.355469 Z M 94.019531 29.5625 "/>
<path style=" stroke:none;fill-rule:nonzero;fill:rgb(100%,100%,100%);fill-opacity:1;" d="M 62.667969 57.09375 C 60.171875 61.511719 55.425781 64.523438 49.972656 64.523438 C 44.546875 64.523438 39.828125 61.566406 37.332031 57.175781 C 36.113281 55.03125 35.40625 52.589844 35.40625 49.960938 C 35.40625 41.902344 41.917969 35.394531 49.972656 35.394531 C 55.34375 35.394531 60.035156 38.324219 62.558594 42.664062 L 75.277344 35.339844 C 70.207031 26.605469 60.765625 20.722656 49.945312 20.722656 C 33.78125 20.722656 20.707031 33.820312 20.707031 49.960938 C 20.707031 55.25 22.117188 60.238281 24.585938 64.523438 C 29.632812 73.285156 39.125 79.199219 49.972656 79.199219 C 60.847656 79.199219 70.34375 73.257812 75.386719 64.441406 Z M 78.75 43.042969 L 75.847656 43.042969 L 75.847656 57.066406 L 78.75 57.066406 Z M 85.175781 43.042969 L 82.277344 43.042969 L 82.277344 57.066406 L 85.175781 57.066406 Z M 85.175781 43.042969 "/>
<path style=" stroke:none;fill-rule:nonzero;fill:rgb(100%,100%,100%);fill-opacity:1;" d="M 87.539062 45.402344 L 73.515625 45.402344 L 73.515625 48.304688 L 87.539062 48.304688 Z M 87.539062 51.804688 L 73.515625 51.804688 L 73.515625 54.707031 L 87.539062 54.707031 Z M 87.539062 51.804688 "/>
</g>
</svg>
