<?xml version="1.0" encoding="UTF-8"?>
<svg xmlns="http://www.w3.org/2000/svg" xmlns:xlink="http://www.w3.org/1999/xlink" width="100px" height="100px" viewBox="0 0 100 100" version="1.1">
<g id="surface1">
<path style=" stroke:none;fill-rule:evenodd;fill:rgb(58.039216%,47.45098%,36.470588%);fill-opacity:1;" d="M 68.171875 78.234375 C 68.304688 77.980469 68.429688 77.753906 68.539062 77.523438 C 68.605469 77.375 68.710938 77.34375 68.859375 77.347656 C 69.742188 77.375 70.628906 77.402344 71.515625 77.410156 C 72.265625 77.417969 73.019531 77.402344 73.773438 77.394531 C 74.621094 77.386719 75.46875 77.339844 76.316406 77.363281 C 77.445312 77.398438 78.546875 77.617188 79.566406 78.121094 C 80.789062 78.722656 81.710938 79.636719 82.339844 80.84375 C 82.742188 81.613281 82.972656 82.429688 83.066406 83.296875 C 83.199219 84.550781 83.113281 85.777344 82.714844 86.980469 C 82.21875 88.46875 81.28125 89.609375 79.980469 90.464844 C 78.976562 91.121094 77.878906 91.507812 76.699219 91.730469 C 75.453125 91.964844 74.203125 91.890625 72.953125 91.894531 C 71.582031 91.898438 70.210938 91.871094 68.835938 91.855469 C 68.597656 91.851562 68.5625 91.804688 68.625 91.578125 L 68.683594 91.367188 C 68.820312 90.945312 68.890625 90.925781 69.316406 90.855469 C 69.613281 90.808594 69.917969 90.699219 70.167969 90.535156 C 70.308594 90.4375 70.371094 90.191406 70.425781 90 C 70.472656 89.832031 70.476562 89.648438 70.476562 89.472656 C 70.496094 86.796875 70.519531 84.121094 70.527344 81.445312 C 70.53125 80.769531 70.515625 80.09375 70.476562 79.417969 C 70.453125 78.945312 70.199219 78.621094 69.636719 78.511719 C 69.199219 78.425781 68.757812 78.355469 68.320312 78.28125 Z M 80.730469 84.710938 C 80.671875 84.179688 80.640625 83.640625 80.546875 83.117188 C 80.320312 81.855469 79.765625 80.757812 78.796875 79.898438 C 77.230469 78.507812 75.347656 78.296875 73.371094 78.460938 C 72.917969 78.5 72.824219 78.652344 72.816406 79.113281 C 72.804688 79.769531 72.792969 80.425781 72.792969 81.082031 C 72.789062 83.164062 72.789062 85.246094 72.792969 87.328125 C 72.792969 87.917969 72.800781 88.511719 72.816406 89.101562 C 72.835938 89.707031 73.054688 90.21875 73.648438 90.453125 C 74.582031 90.824219 75.5625 90.867188 76.542969 90.714844 C 78.109375 90.476562 79.203125 89.5625 79.9375 88.199219 C 80.519531 87.113281 80.683594 85.929688 80.730469 84.710938 Z M 84.535156 91.800781 C 84.515625 91.476562 84.648438 91.207031 84.8125 90.960938 C 84.855469 90.894531 85.011719 90.898438 85.117188 90.875 L 86.011719 90.699219 C 86.328125 90.632812 86.492188 90.417969 86.539062 90.109375 C 86.566406 89.90625 86.597656 89.699219 86.597656 89.492188 C 86.617188 87.851562 86.636719 86.214844 86.644531 84.574219 C 86.652344 82.933594 86.644531 81.292969 86.644531 79.652344 L 86.640625 79.339844 C 86.605469 78.8125 86.351562 78.539062 85.828125 78.460938 L 84.695312 78.289062 C 84.554688 78.269531 84.503906 78.203125 84.554688 78.078125 C 84.640625 77.867188 84.726562 77.648438 84.847656 77.457031 C 84.894531 77.386719 85.050781 77.359375 85.15625 77.363281 C 85.695312 77.371094 86.238281 77.410156 86.78125 77.410156 L 91.5 77.382812 C 92.410156 77.382812 93.289062 77.539062 94.105469 77.976562 C 95 78.453125 95.503906 79.191406 95.648438 80.199219 C 95.796875 81.257812 95.476562 82.152344 94.703125 82.859375 C 94.386719 83.152344 93.972656 83.34375 93.605469 83.582031 L 93.484375 83.65625 C 93.828125 83.78125 94.152344 83.890625 94.46875 84.019531 C 95.398438 84.398438 96.136719 84.996094 96.527344 85.945312 C 96.835938 86.691406 96.835938 87.472656 96.652344 88.25 C 96.367188 89.464844 95.566406 90.273438 94.527344 90.886719 C 93.546875 91.460938 92.492188 91.796875 91.363281 91.851562 C 90.324219 91.902344 89.28125 91.882812 88.238281 91.894531 L 87.636719 91.898438 C 86.632812 91.875 85.628906 91.851562 84.625 91.824219 Z M 88.859375 87.042969 L 88.871094 87.042969 C 88.871094 87.554688 88.863281 88.070312 88.871094 88.585938 C 88.878906 88.917969 88.867188 89.257812 88.9375 89.578125 C 89.046875 90.058594 89.265625 90.492188 89.804688 90.628906 C 90.527344 90.816406 91.269531 90.851562 92.003906 90.726562 C 92.925781 90.566406 93.65625 90.105469 94.058594 89.226562 C 94.359375 88.578125 94.402344 87.886719 94.300781 87.183594 C 94.164062 86.253906 93.671875 85.582031 92.851562 85.140625 C 92.316406 84.851562 91.742188 84.671875 91.128906 84.648438 C 90.445312 84.625 89.761719 84.621094 89.078125 84.601562 C 88.882812 84.59375 88.859375 84.691406 88.859375 84.851562 C 88.863281 85.582031 88.859375 86.3125 88.859375 87.042969 Z M 90.316406 83.546875 C 90.691406 83.527344 91.113281 83.523438 91.535156 83.480469 C 92.34375 83.398438 92.910156 82.992188 93.207031 82.222656 C 93.355469 81.832031 93.351562 81.429688 93.355469 81.019531 C 93.367188 79.960938 92.746094 79.09375 91.742188 78.734375 C 90.964844 78.457031 90.160156 78.449219 89.355469 78.472656 C 89.027344 78.480469 88.882812 78.625 88.878906 78.953125 L 88.828125 83.242188 C 88.828125 83.410156 88.902344 83.484375 89.066406 83.492188 Z M 90.316406 83.546875 "/>
<path style=" stroke:none;fill-rule:evenodd;fill:rgb(31.372549%,21.960784%,16.862745%);fill-opacity:1;" d="M 8.238281 90.976562 L 8.179688 91.710938 C 7.648438 91.710938 7.160156 91.707031 6.667969 91.714844 C 5.746094 91.722656 4.824219 91.738281 3.898438 91.75 L 3.8125 91.757812 C 3.679688 91.742188 3.4375 91.742188 3.433594 91.703125 C 3.394531 91.484375 3.40625 91.253906 3.417969 91.023438 C 3.417969 91 3.507812 90.964844 3.558594 90.953125 L 4.277344 90.792969 C 4.726562 90.675781 4.882812 90.484375 4.902344 90.023438 C 4.929688 89.5 4.953125 88.980469 4.953125 88.457031 C 4.960938 87.175781 4.953125 85.894531 4.960938 84.609375 C 4.960938 84.3125 4.855469 84.085938 4.578125 83.964844 C 4.242188 83.820312 3.910156 83.675781 3.574219 83.539062 C 3.414062 83.476562 3.207031 83.441406 3.226562 83.226562 C 3.242188 83.007812 3.445312 82.949219 3.632812 82.90625 C 4.417969 82.730469 5.199219 82.554688 5.980469 82.363281 C 6.230469 82.300781 6.472656 82.199219 6.773438 82.09375 C 6.789062 82.257812 6.816406 82.410156 6.816406 82.566406 L 6.769531 83.300781 C 6.769531 83.382812 6.8125 83.496094 6.871094 83.539062 C 6.910156 83.570312 7.035156 83.515625 7.097656 83.46875 C 7.765625 82.960938 8.472656 82.523438 9.277344 82.265625 C 10.523438 81.871094 11.597656 82.238281 12.347656 83.3125 C 12.609375 83.691406 12.609375 83.691406 12.976562 83.429688 C 13.605469 82.972656 14.265625 82.566406 15 82.300781 C 16.617188 81.71875 18.167969 82.460938 18.730469 84.085938 C 18.933594 84.675781 19.011719 85.289062 19.011719 85.910156 L 18.996094 90.050781 C 18.996094 90.390625 19.109375 90.585938 19.433594 90.691406 C 19.796875 90.8125 20.175781 90.894531 20.585938 91 L 20.492188 91.714844 C 20.023438 91.714844 19.59375 91.710938 19.164062 91.714844 C 18.117188 91.722656 17.066406 91.730469 16.015625 91.753906 C 15.832031 91.757812 15.785156 91.710938 15.777344 91.542969 C 15.746094 90.992188 15.742188 90.996094 16.257812 90.871094 L 16.429688 90.828125 C 16.933594 90.6875 17.101562 90.535156 17.105469 90.023438 C 17.117188 88.554688 17.148438 87.085938 17.074219 85.621094 C 16.996094 84.101562 15.792969 83.292969 14.320312 83.683594 C 13.839844 83.808594 13.402344 84.03125 13 84.320312 C 12.863281 84.417969 12.835938 84.527344 12.847656 84.699219 C 12.890625 85.347656 12.914062 85.996094 12.921875 86.640625 C 12.929688 87.777344 12.914062 88.910156 12.921875 90.042969 C 12.921875 90.503906 13.078125 90.679688 13.53125 90.785156 L 14.207031 90.941406 L 14.332031 90.96875 C 14.339844 91.183594 14.351562 91.398438 14.339844 91.617188 C 14.332031 91.75 14.230469 91.761719 14.113281 91.761719 C 13.457031 91.742188 12.800781 91.722656 12.144531 91.722656 C 11.347656 91.726562 10.550781 91.746094 9.753906 91.761719 L 9.566406 91.761719 C 9.566406 91.53125 9.554688 91.3125 9.574219 91.097656 C 9.578125 91.042969 9.667969 90.96875 9.734375 90.953125 L 10.519531 90.789062 C 10.851562 90.707031 11.011719 90.535156 11.03125 90.195312 C 11.121094 88.625 11.183594 87.054688 11.035156 85.484375 C 11.007812 85.179688 10.90625 84.871094 10.78125 84.589844 C 10.378906 83.699219 9.472656 83.328125 8.429688 83.597656 C 7.933594 83.722656 7.484375 83.949219 7.0625 84.238281 C 6.863281 84.375 6.765625 84.554688 6.765625 84.78125 C 6.765625 86.347656 6.773438 87.914062 6.777344 89.480469 L 6.785156 90.082031 C 6.792969 90.503906 6.972656 90.726562 7.390625 90.816406 C 7.660156 90.878906 7.933594 90.917969 8.238281 90.976562 Z M 8.238281 90.976562 "/>
<path style=" stroke:none;fill-rule:evenodd;fill:rgb(30.980392%,21.960784%,16.862745%);fill-opacity:1;" d="M 55.46875 82.253906 C 55.589844 82.84375 55.589844 83.371094 55.15625 83.773438 C 54.726562 84.171875 54.183594 84.039062 53.652344 83.949219 C 53.699219 84.230469 53.753906 84.46875 53.78125 84.707031 C 53.976562 86.496094 53.207031 87.824219 51.546875 88.582031 C 50.921875 88.867188 50.253906 88.972656 49.578125 89.027344 C 49.238281 89.054688 48.945312 89.3125 48.910156 89.589844 C 48.878906 89.871094 49.054688 90.160156 49.410156 90.246094 C 49.824219 90.34375 50.257812 90.371094 50.6875 90.421875 C 51.605469 90.527344 52.53125 90.574219 53.4375 90.738281 C 54.808594 90.984375 55.574219 92.179688 55.332031 93.558594 C 55.117188 94.78125 54.40625 95.675781 53.417969 96.359375 C 51.75 97.511719 49.921875 97.851562 47.976562 97.261719 C 46.863281 96.921875 46.078125 96.191406 45.808594 95.007812 C 45.671875 94.414062 45.816406 93.878906 46.261719 93.476562 C 46.792969 93 47.371094 92.574219 47.925781 92.125 L 48.105469 91.941406 L 47.898438 91.796875 C 47.332031 91.53125 46.878906 91.160156 46.703125 90.523438 C 46.644531 90.304688 46.707031 90.164062 46.890625 90.054688 C 47.203125 89.863281 47.511719 89.671875 47.820312 89.480469 C 47.964844 89.386719 48.109375 89.292969 48.246094 89.191406 C 48.429688 89.050781 48.414062 88.945312 48.191406 88.863281 C 47.679688 88.675781 47.226562 88.398438 46.871094 87.976562 C 46.28125 87.273438 46.113281 86.4375 46.164062 85.550781 C 46.238281 84.167969 46.988281 83.257812 48.210938 82.671875 C 49.660156 81.976562 51.117188 81.929688 52.59375 82.566406 C 53.140625 82.800781 53.71875 82.851562 54.304688 82.808594 C 54.742188 82.777344 55.125 82.613281 55.46875 82.253906 Z M 50.125 92.160156 C 49.035156 92.152344 48.691406 92.285156 48.054688 92.9375 C 47.339844 93.667969 47.34375 94.679688 48.054688 95.410156 C 48.597656 95.964844 49.273438 96.226562 50.027344 96.304688 C 50.90625 96.394531 51.773438 96.359375 52.570312 95.917969 C 53.421875 95.449219 53.84375 94.574219 53.652344 93.691406 C 53.496094 92.964844 52.960938 92.632812 52.308594 92.441406 C 51.566406 92.222656 50.796875 92.179688 50.125 92.160156 Z M 47.984375 85.203125 C 48.023438 85.503906 48.039062 85.808594 48.109375 86.105469 C 48.28125 86.875 48.617188 87.546875 49.378906 87.890625 C 50.273438 88.292969 51.417969 88.117188 51.8125 86.859375 C 52.082031 86 52.046875 85.144531 51.722656 84.304688 C 51.578125 83.929688 51.347656 83.609375 51.011719 83.378906 C 50.234375 82.835938 48.832031 82.761719 48.257812 83.964844 C 48.074219 84.351562 48 84.769531 47.984375 85.203125 Z M 47.984375 85.203125 "/>
<path style=" stroke:none;fill-rule:evenodd;fill:rgb(30.980392%,21.568627%,16.862745%);fill-opacity:1;" d="M 36.992188 82.0625 C 37.019531 82.195312 37.078125 82.347656 37.082031 82.5 C 37.082031 82.789062 37.050781 83.078125 37.035156 83.367188 L 37.035156 83.621094 L 37.28125 83.433594 C 37.953125 82.878906 38.675781 82.40625 39.515625 82.152344 C 41.03125 81.695312 42.546875 82.527344 43.042969 84.074219 C 43.230469 84.660156 43.304688 85.265625 43.3125 85.878906 C 43.328125 87.242188 43.335938 88.605469 43.351562 89.96875 C 43.355469 90.460938 43.410156 90.546875 43.875 90.6875 C 44.136719 90.769531 44.40625 90.824219 44.679688 90.867188 C 44.828125 90.890625 44.890625 90.949219 44.882812 91.097656 L 44.886719 91.230469 C 44.878906 91.796875 44.839844 91.820312 44.292969 91.820312 C 42.984375 91.816406 41.671875 91.824219 40.363281 91.835938 C 39.972656 91.839844 39.96875 91.851562 39.929688 91.464844 L 39.921875 91.242188 C 39.949219 90.910156 39.957031 90.914062 40.28125 90.863281 C 40.503906 90.832031 40.722656 90.78125 40.9375 90.726562 C 41.15625 90.667969 41.265625 90.503906 41.292969 90.285156 C 41.308594 90.175781 41.328125 90.0625 41.328125 89.953125 C 41.308594 88.460938 41.332031 86.96875 41.25 85.480469 C 41.1875 84.277344 40.265625 83.5625 39.058594 83.644531 C 38.464844 83.683594 37.929688 83.882812 37.441406 84.222656 C 37.117188 84.449219 37.054688 84.773438 37.054688 85.125 C 37.0625 86.519531 37.074219 87.914062 37.089844 89.308594 C 37.09375 89.613281 37.101562 89.917969 37.128906 90.222656 C 37.160156 90.554688 37.277344 90.6875 37.601562 90.757812 C 37.914062 90.828125 38.230469 90.867188 38.5625 90.921875 L 38.589844 91.179688 C 38.601562 91.777344 38.539062 91.820312 37.957031 91.820312 C 36.601562 91.8125 35.246094 91.820312 33.890625 91.835938 C 33.679688 91.839844 33.589844 91.773438 33.59375 91.566406 L 33.589844 91.476562 C 33.554688 90.9375 33.570312 90.917969 34.082031 90.828125 L 34.320312 90.78125 C 34.871094 90.65625 35.015625 90.511719 35.023438 89.949219 C 35.046875 88.175781 35.058594 86.402344 35.074219 84.628906 C 35.078125 84.375 34.980469 84.175781 34.742188 84.070312 C 34.410156 83.921875 34.074219 83.785156 33.738281 83.644531 C 33.550781 83.570312 33.339844 83.519531 33.332031 83.261719 C 33.328125 83.082031 33.523438 82.921875 33.785156 82.867188 C 34.320312 82.761719 34.855469 82.671875 35.382812 82.539062 C 35.90625 82.40625 36.417969 82.234375 36.992188 82.0625 Z M 36.992188 82.0625 "/>
<path style=" stroke:none;fill-rule:evenodd;fill:rgb(30.980392%,21.960784%,16.862745%);fill-opacity:1;" d="M 66.300781 86.695312 C 66.277344 88.351562 65.84375 89.691406 64.671875 90.699219 C 63.1875 91.972656 60.875 92.40625 58.980469 91.453125 C 58.171875 91.046875 57.578125 90.421875 57.191406 89.613281 C 56.597656 88.367188 56.449219 87.054688 56.761719 85.714844 C 57.066406 84.386719 57.871094 83.425781 59.074219 82.800781 C 60.3125 82.160156 61.613281 81.910156 62.988281 82.246094 C 64.726562 82.671875 65.976562 84.089844 66.222656 85.894531 C 66.269531 86.210938 66.285156 86.53125 66.300781 86.695312 Z M 64.289062 87.59375 L 64.21875 87.585938 C 64.21875 87.429688 64.230469 87.273438 64.21875 87.117188 C 64.160156 86.144531 63.941406 85.214844 63.378906 84.402344 C 62.84375 83.628906 62.113281 83.171875 61.167969 83.105469 C 60.105469 83.03125 59.210938 83.625 58.898438 84.710938 C 58.429688 86.339844 58.589844 87.925781 59.414062 89.417969 C 59.773438 90.066406 60.308594 90.546875 61.023438 90.796875 C 62.425781 91.292969 63.667969 90.652344 64.03125 89.21875 C 64.164062 88.6875 64.203125 88.136719 64.289062 87.59375 Z M 64.289062 87.59375 "/>
<path style=" stroke:none;fill-rule:evenodd;fill:rgb(30.980392%,21.568627%,16.862745%);fill-opacity:1;" d="M 31.890625 86.824219 C 31.859375 88.011719 31.582031 89.113281 30.847656 90.066406 C 30.058594 91.089844 28.976562 91.636719 27.75 91.867188 C 26.292969 92.140625 24.929688 91.894531 23.761719 90.917969 C 23.207031 90.453125 22.828125 89.859375 22.578125 89.183594 C 22.167969 88.074219 22.066406 86.9375 22.316406 85.777344 C 22.585938 84.539062 23.285156 83.589844 24.371094 82.953125 C 25.625 82.21875 26.980469 81.894531 28.425781 82.222656 C 30.285156 82.648438 31.359375 83.859375 31.757812 85.695312 C 31.835938 86.0625 31.847656 86.445312 31.890625 86.824219 Z M 29.855469 87.609375 L 29.800781 87.601562 L 29.800781 87.375 C 29.769531 86.285156 29.554688 85.246094 28.90625 84.339844 C 28.421875 83.667969 27.777344 83.246094 26.949219 83.128906 C 25.601562 82.9375 24.722656 83.734375 24.429688 84.824219 C 24.046875 86.242188 24.167969 87.644531 24.757812 88.992188 C 25.125 89.828125 25.707031 90.484375 26.597656 90.800781 C 27.992188 91.296875 29.253906 90.640625 29.605469 89.210938 C 29.734375 88.6875 29.773438 88.144531 29.855469 87.609375 Z M 29.855469 87.609375 "/>
<path style=" stroke:none;fill-rule:evenodd;fill:rgb(26.27451%,60%,20.392157%);fill-opacity:1;" d="M 64.34375 26.207031 C 65.304688 28.976562 65.992188 31.804688 66.21875 34.738281 C 66.5 38.375 66.375 41.988281 65.605469 45.566406 L 65.507812 45.851562 C 65.265625 45.851562 65.023438 45.820312 64.785156 45.859375 C 62.800781 46.171875 60.816406 46.492188 58.832031 46.816406 C 56.777344 47.148438 54.722656 47.46875 52.675781 47.824219 C 51.949219 47.949219 51.050781 47.796875 50.757812 48.800781 L 50.617188 48.847656 L 50.71875 42.851562 L 50.617188 28.378906 L 51.574219 28.214844 C 53.136719 27.957031 54.699219 27.699219 56.265625 27.449219 C 58.132812 27.152344 60 26.863281 61.871094 26.574219 C 62.695312 26.449219 63.519531 26.328125 64.34375 26.207031 Z M 64.34375 26.207031 "/>
<path style=" stroke:none;fill-rule:evenodd;fill:rgb(27.058824%,64.705882%,21.960784%);fill-opacity:1;" d="M 48.644531 66.335938 C 47.636719 65.46875 46.59375 64.640625 45.625 63.726562 C 40.425781 58.820312 36.617188 53.046875 34.746094 46.082031 C 34.226562 44.167969 33.882812 42.21875 33.773438 40.238281 C 33.695312 38.855469 33.582031 37.457031 33.683594 36.078125 C 33.941406 32.410156 34.472656 28.78125 35.546875 25.246094 L 35.605469 25.164062 C 35.710938 25.304688 35.863281 25.429688 35.914062 25.585938 C 36.964844 28.675781 38.007812 31.769531 39.042969 34.867188 C 42.300781 44.59375 45.554688 54.324219 48.816406 64.046875 C 48.878906 64.238281 49.042969 64.394531 49.164062 64.566406 Z M 48.644531 66.335938 "/>
<path style=" stroke:none;fill-rule:evenodd;fill:rgb(27.45098%,62.745098%,21.568627%);fill-opacity:1;" d="M 64.34375 26.207031 C 63.519531 26.328125 62.695312 26.449219 61.871094 26.574219 C 60 26.863281 58.132812 27.152344 56.265625 27.449219 C 54.699219 27.695312 53.136719 27.957031 51.574219 28.214844 L 50.617188 28.378906 L 50.609375 27.753906 C 50.578125 27.242188 50.523438 26.730469 50.515625 26.214844 L 50.410156 16.410156 C 50.382812 14.363281 50.347656 12.316406 50.304688 10.269531 C 50.28125 9 50.253906 7.726562 50.195312 6.457031 C 50.164062 5.777344 50.054688 5.097656 50.011719 4.414062 C 49.984375 4.023438 50.019531 3.628906 50.027344 3.234375 C 50.515625 4.179688 50.992188 5.128906 51.492188 6.066406 C 52.285156 7.550781 53.546875 8.640625 54.683594 9.832031 C 59.171875 14.546875 62.359375 20.019531 64.34375 26.207031 Z M 64.34375 26.207031 "/>
<path style=" stroke:none;fill-rule:evenodd;fill:rgb(25.098039%,58.039216%,20%);fill-opacity:1;" d="M 50.617188 48.847656 L 50.757812 48.800781 C 51.050781 47.796875 51.949219 47.949219 52.675781 47.824219 C 54.726562 47.46875 56.777344 47.148438 58.832031 46.816406 C 60.816406 46.496094 62.800781 46.171875 64.789062 45.859375 C 65.023438 45.820312 65.269531 45.851562 65.507812 45.851562 C 65.136719 47.175781 64.84375 48.53125 64.375 49.816406 C 63.839844 51.277344 63.191406 52.707031 62.503906 54.105469 C 61.480469 56.195312 60.199219 58.144531 58.714844 59.929688 C 57.570312 61.308594 56.292969 62.582031 55.011719 63.839844 C 54.304688 64.53125 53.472656 65.097656 52.695312 65.722656 L 52.496094 65.585938 L 51.769531 64.96875 L 51.019531 63.324219 C 50.503906 61.402344 50.234375 59.441406 50.1875 57.453125 L 50.203125 57.117188 L 50.304688 55.667969 C 50.339844 55.175781 50.382812 54.679688 50.40625 54.1875 C 50.480469 52.410156 50.546875 50.628906 50.617188 48.847656 Z M 50.617188 48.847656 "/>
<path style=" stroke:none;fill-rule:evenodd;fill:rgb(30.980392%,66.666667%,25.490196%);fill-opacity:1;" d="M 50.617188 48.847656 C 50.546875 50.628906 50.480469 52.410156 50.40625 54.1875 C 50.382812 54.683594 50.339844 55.179688 50.304688 55.671875 L 49.847656 55.84375 C 48.835938 52.859375 47.820312 49.90625 46.828125 46.945312 C 45.1875 42.046875 43.566406 37.140625 41.925781 32.238281 C 40.605469 28.285156 39.269531 24.332031 37.929688 20.382812 C 37.863281 20.199219 37.683594 20.050781 37.558594 19.890625 L 40.480469 14.515625 C 40.582031 14.691406 40.714844 14.855469 40.777344 15.042969 C 42.128906 19.042969 43.480469 23.042969 44.816406 27.046875 C 46.558594 32.257812 48.285156 37.472656 50.023438 42.683594 C 50.09375 42.890625 50.207031 43.082031 50.316406 43.316406 L 50.71875 42.851562 C 50.683594 44.851562 50.652344 46.847656 50.617188 48.847656 Z M 50.617188 48.847656 "/>
<path style=" stroke:none;fill-rule:evenodd;fill:rgb(29.019608%,65.490196%,23.529412%);fill-opacity:1;" d="M 37.558594 19.890625 C 37.683594 20.050781 37.863281 20.199219 37.925781 20.382812 C 39.269531 24.332031 40.601562 28.28125 41.925781 32.238281 C 43.566406 37.140625 45.1875 42.046875 46.828125 46.945312 C 47.820312 49.90625 48.835938 52.859375 49.847656 55.84375 L 50.304688 55.671875 L 50.203125 57.121094 L 50.109375 57.453125 C 49.949219 59.039062 49.816406 60.628906 49.625 62.210938 C 49.527344 63.003906 49.320312 63.78125 49.164062 64.566406 C 49.042969 64.394531 48.878906 64.238281 48.816406 64.046875 C 45.550781 54.324219 42.300781 44.59375 39.042969 34.867188 C 38.003906 31.769531 36.964844 28.675781 35.914062 25.585938 C 35.859375 25.429688 35.710938 25.304688 35.605469 25.164062 Z M 37.558594 19.890625 "/>
<path style=" stroke:none;fill-rule:evenodd;fill:rgb(34.117647%,68.235294%,27.843137%);fill-opacity:1;" d="M 50.71875 42.851562 L 50.316406 43.316406 C 50.207031 43.082031 50.09375 42.890625 50.023438 42.683594 C 48.285156 37.472656 46.554688 32.257812 44.816406 27.046875 C 43.476562 23.042969 42.128906 19.042969 40.777344 15.042969 C 40.714844 14.855469 40.582031 14.691406 40.480469 14.515625 L 44.09375 9.761719 C 44.207031 9.914062 44.371094 10.050781 44.429688 10.222656 C 45.433594 13.160156 46.425781 16.097656 47.414062 19.039062 C 48.339844 21.789062 49.25 24.539062 50.183594 27.285156 C 50.246094 27.46875 50.464844 27.597656 50.609375 27.753906 L 50.617188 28.378906 Z M 50.71875 42.851562 "/>
<path style=" stroke:none;fill-rule:evenodd;fill:rgb(37.647059%,69.803922%,30.980392%);fill-opacity:1;" d="M 50.609375 27.753906 C 50.460938 27.597656 50.246094 27.46875 50.183594 27.285156 C 49.25 24.539062 48.339844 21.789062 47.414062 19.039062 C 46.425781 16.097656 45.433594 13.160156 44.429688 10.222656 C 44.371094 10.050781 44.207031 9.914062 44.09375 9.761719 C 45.269531 8.613281 46.40625 7.421875 47.628906 6.324219 C 48.71875 5.347656 49.589844 4.300781 49.632812 2.761719 L 49.71875 2.453125 L 50.027344 3.234375 C 50.019531 3.628906 49.984375 4.023438 50.007812 4.414062 C 50.054688 5.097656 50.164062 5.777344 50.195312 6.457031 C 50.25 7.726562 50.277344 9 50.304688 10.269531 C 50.347656 12.316406 50.382812 14.363281 50.410156 16.40625 L 50.515625 26.214844 C 50.523438 26.730469 50.578125 27.242188 50.609375 27.753906 Z M 50.609375 27.753906 "/>
<path style=" stroke:none;fill-rule:evenodd;fill:rgb(66.27451%,66.666667%,53.333333%);fill-opacity:1;" d="M 49.164062 64.5625 C 49.320312 63.78125 49.527344 63 49.625 62.207031 C 49.816406 60.628906 49.953125 59.039062 50.109375 57.453125 L 50.148438 57.445312 L 50.1875 57.453125 C 50.234375 59.445312 50.503906 61.402344 51.019531 63.324219 C 50.914062 63.464844 50.769531 63.585938 50.710938 63.742188 C 50.277344 64.96875 49.867188 66.199219 49.433594 67.421875 C 49.375 67.589844 49.207031 67.722656 49.089844 67.867188 L 48.644531 66.335938 Z M 49.164062 64.5625 "/>
<path style=" stroke:none;fill-rule:evenodd;fill:rgb(71.372549%,70.980392%,59.607843%);fill-opacity:1;" d="M 49.089844 67.867188 C 49.207031 67.722656 49.375 67.589844 49.433594 67.425781 C 49.867188 66.203125 50.277344 64.96875 50.710938 63.746094 C 50.765625 63.589844 50.914062 63.464844 51.019531 63.328125 L 51.769531 64.96875 C 51.621094 65.179688 51.417969 65.371094 51.335938 65.601562 L 49.902344 69.816406 C 49.84375 69.984375 49.640625 70.105469 49.503906 70.246094 Z M 49.089844 67.867188 "/>
<path style=" stroke:none;fill-rule:evenodd;fill:rgb(76.078431%,75.686275%,65.490196%);fill-opacity:1;" d="M 49.503906 70.246094 C 49.640625 70.101562 49.84375 69.984375 49.902344 69.816406 L 51.335938 65.601562 C 51.417969 65.367188 51.621094 65.179688 51.769531 64.96875 L 52.496094 65.585938 C 52.144531 65.933594 51.949219 66.332031 52.066406 66.839844 L 51.847656 67.558594 C 51.746094 67.683594 51.601562 67.792969 51.554688 67.933594 C 51.050781 69.367188 50.574219 70.808594 50.070312 72.242188 C 50.007812 72.425781 49.828125 72.566406 49.703125 72.726562 Z M 49.503906 70.246094 "/>
<path style=" stroke:none;fill-rule:evenodd;fill:rgb(80.784314%,80.392157%,71.764706%);fill-opacity:1;" d="M 49.703125 72.726562 C 49.828125 72.566406 50.007812 72.421875 50.070312 72.242188 C 50.574219 70.808594 51.050781 69.367188 51.550781 67.933594 C 51.601562 67.789062 51.746094 67.683594 51.847656 67.558594 L 51.542969 70.867188 C 51.460938 70.960938 51.34375 71.042969 51.304688 71.152344 L 50.292969 74.050781 C 50.222656 74.246094 50.085938 74.425781 49.980469 74.609375 C 49.886719 74.484375 49.71875 74.367188 49.710938 74.238281 C 49.679688 73.738281 49.703125 73.230469 49.703125 72.726562 Z M 49.703125 72.726562 "/>
<path style=" stroke:none;fill-rule:evenodd;fill:rgb(85.882353%,85.490196%,78.039216%);fill-opacity:1;" d="M 49.980469 74.609375 C 50.089844 74.425781 50.222656 74.25 50.296875 74.050781 L 51.304688 71.152344 C 51.34375 71.042969 51.464844 70.964844 51.542969 70.871094 L 51.550781 73.042969 L 50.824219 74.90625 Z M 49.980469 74.609375 "/>
<path style=" stroke:none;fill-rule:evenodd;fill:rgb(92.156863%,91.372549%,86.27451%);fill-opacity:1;" d="M 50.824219 74.90625 L 51.550781 73.042969 L 51.703125 75.246094 Z M 50.824219 74.90625 "/>
<path style=" stroke:none;fill-rule:evenodd;fill:rgb(80.784314%,80.392157%,71.764706%);fill-opacity:1;" d="M 52.066406 66.839844 C 51.949219 66.335938 52.144531 65.933594 52.496094 65.585938 L 52.695312 65.726562 Z M 52.066406 66.839844 "/>
<path style=" stroke:none;fill-rule:evenodd;fill:rgb(30.980392%,66.666667%,25.490196%);fill-opacity:1;" d="M 50.1875 57.453125 L 50.148438 57.449219 L 50.109375 57.453125 L 50.203125 57.121094 Z M 50.1875 57.453125 "/>
</g>
</svg>
