<?xml version="1.0" encoding="UTF-8"?>
<svg xmlns="http://www.w3.org/2000/svg" xmlns:xlink="http://www.w3.org/1999/xlink" width="100px" height="100px" viewBox="0 0 100 100" version="1.1">
<g id="surface1">
<path style=" stroke:none;fill-rule:nonzero;fill:rgb(0%,38.039216%,54.117647%);fill-opacity:1;" d="M 1.5625 70.671875 L 4.773438 70.671875 L 4.773438 57.996094 L 9.742188 69.046875 C 10.328125 70.382812 11.128906 70.855469 12.703125 70.855469 C 14.277344 70.855469 15.050781 70.382812 15.636719 69.046875 L 20.605469 57.996094 L 20.605469 70.671875 L 23.8125 70.671875 L 23.8125 58.015625 C 23.8125 56.78125 23.320312 56.183594 22.300781 55.878906 C 19.863281 55.117188 18.226562 55.773438 17.488281 57.421875 L 12.609375 68.324219 L 7.890625 57.421875 C 7.179688 55.773438 5.511719 55.117188 3.074219 55.875 C 2.054688 56.183594 1.5625 56.78125 1.5625 58.015625 Z M 26.484375 60.351562 L 29.691406 60.351562 L 29.691406 67.335938 C 29.664062 67.714844 29.8125 68.605469 31.570312 68.632812 C 32.46875 68.648438 38.496094 68.632812 38.550781 68.632812 L 38.550781 60.320312 L 41.769531 60.320312 C 41.78125 60.320312 41.765625 71.65625 41.765625 71.703125 C 41.78125 74.5 38.296875 75.109375 36.6875 75.15625 L 26.554688 75.15625 L 26.554688 72.996094 C 26.570312 72.996094 36.679688 73 36.707031 72.996094 C 38.773438 72.777344 38.527344 71.75 38.527344 71.40625 L 38.527344 70.5625 L 31.707031 70.5625 C 28.53125 70.535156 26.511719 69.148438 26.484375 67.554688 C 26.484375 67.410156 26.554688 60.421875 26.484375 60.351562 Z M 26.484375 60.351562 "/>
<path style=" stroke:none;fill-rule:nonzero;fill:rgb(89.411765%,55.686275%,0%);fill-opacity:1;" d="M 44.242188 70.671875 L 53.46875 70.671875 C 54.550781 70.671875 55.601562 70.445312 56.433594 70.054688 C 57.820312 69.417969 58.5 68.550781 58.5 67.417969 L 58.5 65.074219 C 58.5 64.148438 57.730469 63.285156 56.21875 62.707031 C 55.414062 62.398438 54.425781 62.234375 53.46875 62.234375 L 49.582031 62.234375 C 48.285156 62.234375 47.667969 61.84375 47.511719 60.980469 C 47.484375 60.878906 47.484375 60.796875 47.484375 60.691406 L 47.484375 59.230469 C 47.484375 59.148438 47.484375 59.066406 47.511719 58.964844 C 47.667969 58.304688 48.007812 58.121094 49.148438 58.019531 L 49.457031 57.996094 L 58.625 57.996094 L 58.625 55.859375 L 49.613281 55.859375 C 48.316406 55.859375 47.636719 55.941406 47.019531 56.125 C 45.105469 56.722656 44.273438 57.667969 44.273438 59.316406 L 44.273438 61.1875 C 44.273438 62.628906 45.910156 63.863281 48.65625 64.148438 C 48.964844 64.167969 49.273438 64.191406 49.582031 64.191406 L 52.914062 64.191406 C 53.039062 64.191406 53.160156 64.191406 53.253906 64.210938 C 54.273438 64.292969 54.703125 64.480469 55.015625 64.847656 C 55.199219 65.035156 55.261719 65.21875 55.261719 65.425781 L 55.261719 67.296875 C 55.261719 67.523438 55.105469 67.8125 54.796875 68.058594 C 54.519531 68.304688 54.058594 68.46875 53.441406 68.511719 L 53.101562 68.53125 L 44.242188 68.53125 Z M 78.523438 66.945312 C 78.523438 69.148438 80.160156 70.382812 83.460938 70.628906 C 83.769531 70.648438 84.078125 70.671875 84.386719 70.671875 L 92.75 70.671875 L 92.75 68.53125 L 84.328125 68.53125 C 82.445312 68.53125 81.734375 68.058594 81.734375 66.925781 L 81.734375 55.855469 L 78.523438 55.855469 Z M 60.550781 67.058594 L 60.550781 59.429688 C 60.550781 57.492188 61.910156 56.316406 64.601562 55.945312 C 64.878906 55.902344 65.1875 55.882812 65.464844 55.882812 L 71.558594 55.882812 C 71.867188 55.882812 72.148438 55.902344 72.457031 55.945312 C 75.144531 56.316406 76.507812 57.492188 76.507812 59.429688 L 76.507812 67.058594 C 76.507812 68.632812 75.929688 69.472656 74.597656 70.019531 L 77.761719 72.875 L 74.03125 72.875 L 71.476562 70.566406 L 68.898438 70.726562 L 65.464844 70.726562 C 64.878906 70.726562 64.261719 70.644531 63.582031 70.460938 C 61.539062 69.902344 60.550781 68.832031 60.550781 67.058594 Z M 64.011719 66.871094 C 64.011719 66.976562 64.042969 67.078125 64.074219 67.203125 C 64.261719 68.089844 65.097656 68.585938 66.363281 68.585938 L 69.277344 68.585938 L 66.601562 66.167969 L 70.328125 66.167969 L 72.664062 68.277344 C 73.09375 68.046875 73.378906 67.695312 73.476562 67.246094 C 73.507812 67.140625 73.507812 67.039062 73.507812 66.933594 L 73.507812 59.617188 C 73.507812 59.535156 73.507812 59.429688 73.476562 59.328125 C 73.289062 58.503906 72.457031 58.027344 71.21875 58.027344 L 66.363281 58.027344 C 64.941406 58.027344 64.011719 58.648438 64.011719 59.617188 Z M 64.011719 66.871094 "/>
<path style=" stroke:none;fill-rule:nonzero;fill:rgb(0%,38.039216%,54.117647%);fill-opacity:1;" d="M 95.574219 52.304688 C 93.601562 52.253906 92.09375 52.4375 90.804688 52.980469 C 90.441406 53.132812 89.855469 53.136719 89.796875 53.597656 C 89.996094 53.808594 90.027344 54.121094 90.1875 54.382812 C 90.496094 54.878906 91.015625 55.546875 91.480469 55.894531 C 91.984375 56.277344 92.507812 56.6875 93.050781 57.019531 C 94.015625 57.609375 95.09375 57.945312 96.023438 58.53125 C 96.570312 58.882812 97.117188 59.320312 97.652344 59.710938 C 97.914062 59.90625 98.09375 60.207031 98.4375 60.328125 L 98.4375 60.273438 C 98.257812 60.042969 98.210938 59.726562 98.042969 59.488281 L 97.3125 58.757812 C 96.601562 57.808594 95.695312 56.980469 94.734375 56.289062 C 93.964844 55.738281 92.25 54.992188 91.929688 54.101562 L 91.871094 54.046875 C 92.414062 53.984375 93.054688 53.785156 93.554688 53.652344 C 94.398438 53.425781 95.152344 53.484375 96.023438 53.257812 L 97.203125 52.921875 L 97.203125 52.699219 C 96.761719 52.246094 96.445312 51.648438 95.96875 51.238281 C 94.710938 50.171875 93.339844 49.101562 91.929688 48.210938 C 91.144531 47.714844 90.175781 47.394531 89.347656 46.976562 C 89.070312 46.835938 88.578125 46.761719 88.394531 46.527344 C 87.957031 45.972656 87.71875 45.265625 87.382812 44.621094 C 86.679688 43.265625 85.988281 41.78125 85.363281 40.355469 C 84.9375 39.382812 84.660156 38.421875 84.128906 37.550781 C 81.582031 33.363281 78.839844 30.835938 74.59375 28.351562 C 73.6875 27.820312 72.601562 27.613281 71.449219 27.339844 L 69.597656 27.226562 C 69.222656 27.070312 68.832031 26.609375 68.476562 26.386719 C 67.070312 25.496094 63.460938 23.5625 62.417969 26.105469 C 61.761719 27.710938 63.402344 29.277344 63.988281 30.089844 C 64.402344 30.660156 64.929688 31.300781 65.222656 31.941406 C 65.417969 32.363281 65.449219 32.785156 65.617188 33.230469 C 66.023438 34.332031 66.378906 35.527344 66.90625 36.542969 C 67.171875 37.054688 67.46875 37.597656 67.804688 38.054688 C 68.011719 38.335938 68.363281 38.460938 68.421875 38.898438 C 68.074219 39.382812 68.054688 40.136719 67.859375 40.75 C 66.984375 43.511719 67.3125 46.949219 68.589844 48.996094 C 68.980469 49.625 69.902344 50.972656 71.167969 50.453125 C 72.277344 50.003906 72.03125 48.605469 72.347656 47.367188 C 72.421875 47.089844 72.375 46.882812 72.515625 46.695312 L 72.515625 46.753906 L 73.527344 48.773438 C 74.273438 49.976562 75.601562 51.234375 76.722656 52.082031 C 77.308594 52.523438 77.765625 53.285156 78.519531 53.539062 L 78.519531 53.484375 L 78.464844 53.484375 C 78.316406 53.257812 78.089844 53.164062 77.902344 52.980469 C 77.464844 52.546875 76.976562 52.015625 76.613281 51.519531 C 75.589844 50.132812 74.6875 48.613281 73.863281 47.03125 C 73.46875 46.277344 73.128906 45.445312 72.796875 44.675781 C 72.667969 44.378906 72.671875 43.929688 72.40625 43.777344 C 72.042969 44.339844 71.507812 44.796875 71.226562 45.460938 C 70.777344 46.523438 70.71875 47.820312 70.554688 49.164062 L 70.441406 49.21875 C 69.660156 49.03125 69.386719 48.226562 69.09375 47.535156 C 68.359375 45.792969 68.222656 42.980469 68.871094 40.972656 C 69.039062 40.453125 69.792969 38.816406 69.488281 38.335938 C 69.339844 37.855469 68.859375 37.582031 68.589844 37.214844 C 68.257812 36.761719 67.921875 36.164062 67.691406 35.640625 C 67.089844 34.28125 66.808594 32.753906 66.179688 31.378906 C 65.875 30.722656 65.363281 30.054688 64.945312 29.472656 C 64.480469 28.824219 63.957031 28.347656 63.597656 27.5625 C 63.46875 27.285156 63.292969 26.839844 63.484375 26.554688 C 63.542969 26.359375 63.632812 26.28125 63.820312 26.21875 C 64.148438 25.964844 65.054688 26.300781 65.390625 26.441406 C 66.292969 26.816406 67.042969 27.171875 67.804688 27.675781 C 68.171875 27.917969 68.539062 28.386719 68.984375 28.515625 L 69.488281 28.515625 C 70.277344 28.699219 71.164062 28.574219 71.902344 28.796875 C 73.207031 29.195312 74.375 29.808594 75.433594 30.480469 C 78.667969 32.523438 81.3125 35.429688 83.121094 38.894531 C 83.410156 39.453125 83.539062 39.988281 83.792969 40.578125 C 84.3125 41.773438 84.960938 43 85.476562 44.167969 C 85.988281 45.335938 86.492188 46.511719 87.214844 47.480469 C 87.597656 47.988281 89.070312 48.261719 89.742188 48.546875 C 90.210938 48.742188 90.980469 48.949219 91.421875 49.21875 C 92.273438 49.730469 93.097656 50.339844 93.890625 50.902344 C 94.289062 51.183594 95.515625 51.800781 95.574219 52.304688 Z M 70.496094 30.933594 C 70.085938 30.925781 69.796875 30.976562 69.488281 31.042969 L 69.488281 31.101562 L 69.542969 31.101562 C 69.738281 31.503906 70.085938 31.761719 70.328125 32.109375 L 70.890625 33.289062 L 70.945312 33.234375 C 71.292969 32.988281 71.453125 32.597656 71.449219 32 C 71.3125 31.851562 71.289062 31.667969 71.171875 31.492188 C 71.011719 31.257812 70.699219 31.128906 70.496094 30.933594 Z M 70.496094 30.933594 "/>
</g>
</svg>
