<?xml version="1.0" encoding="UTF-8"?>
<svg xmlns="http://www.w3.org/2000/svg" xmlns:xlink="http://www.w3.org/1999/xlink" width="100px" height="100px" viewBox="0 0 100 100" version="1.1">
<defs>
<radialGradient id="radial0" gradientUnits="userSpaceOnUse" cx="-16.114" cy="20.532" fx="-16.114" fy="20.532" r="18.384" gradientTransform="matrix(3.125,0,0,3.125,82.875,-29.084375)">
<stop offset="0" style="stop-color:rgb(100%,100%,100%);stop-opacity:1;"/>
<stop offset="0.5" style="stop-color:rgb(29.803922%,41.960784%,58.823529%);stop-opacity:1;"/>
<stop offset="1" style="stop-color:rgb(13.72549%,12.156863%,12.54902%);stop-opacity:1;"/>
</radialGradient>
</defs>
<g id="surface1">
<path style=" stroke:none;fill-rule:nonzero;fill:url(#radial0);" d="M 93.75 50 C 93.75 37.289062 74.164062 26.984375 50 26.984375 C 25.835938 26.984375 6.25 37.289062 6.25 50 C 6.25 62.710938 25.835938 73.015625 50 73.015625 C 74.164062 73.015625 93.75 62.710938 93.75 50 Z M 93.75 50 "/>
<path style=" stroke:none;fill-rule:nonzero;fill:rgb(38.431373%,50.196078%,71.372549%);fill-opacity:1;" d="M 92.039062 50 C 92.039062 38.234375 73.21875 28.695312 50 28.695312 C 26.78125 28.695312 7.960938 38.234375 7.960938 50 C 7.960938 61.765625 26.78125 71.304688 50 71.304688 C 73.21875 71.304688 92.039062 61.765625 92.039062 50 Z M 92.039062 50 "/>
<path style=" stroke:none;fill-rule:nonzero;fill:rgb(100%,100%,100%);fill-opacity:1;" d="M 58.515625 56.875 L 60.601562 46.144531 C 61.203125 44.273438 60.761719 42.222656 59.4375 40.773438 C 57.621094 39.484375 55.402344 38.898438 53.1875 39.132812 L 49.585938 39.132812 L 50.617188 33.820312 C 50.65625 33.617188 50.605469 33.410156 50.472656 33.253906 C 50.34375 33.097656 50.152344 33.007812 49.945312 33.007812 L 44.945312 33.007812 C 44.621094 33.007812 44.335938 33.238281 44.273438 33.558594 L 42.058594 44.953125 C 41.890625 43.734375 41.371094 42.589844 40.570312 41.660156 C 38.761719 39.847656 36.246094 38.925781 33.695312 39.136719 L 24.0625 39.136719 C 23.734375 39.136719 23.453125 39.371094 23.390625 39.691406 L 18.910156 62.753906 C 18.871094 62.953125 18.925781 63.160156 19.054688 63.316406 C 19.183594 63.472656 19.378906 63.566406 19.582031 63.566406 L 24.589844 63.566406 C 24.917969 63.566406 25.199219 63.332031 25.261719 63.011719 L 26.347656 57.433594 L 30.097656 57.433594 C 31.753906 57.480469 33.40625 57.269531 34.996094 56.808594 C 36.339844 56.367188 37.566406 55.628906 38.589844 54.65625 C 39.429688 53.890625 40.148438 53 40.714844 52.019531 L 39.820312 56.628906 C 39.78125 56.828125 39.832031 57.035156 39.964844 57.191406 C 40.09375 57.347656 40.285156 57.441406 40.492188 57.441406 L 45.492188 57.441406 C 45.816406 57.441406 46.101562 57.207031 46.164062 56.886719 L 48.621094 44.226562 L 52.039062 44.226562 C 53.496094 44.226562 53.914062 44.519531 54.039062 44.644531 C 54.164062 44.769531 54.351562 45.160156 54.117188 46.421875 L 52.132812 56.625 C 52.097656 56.824219 52.148438 57.03125 52.277344 57.1875 C 52.410156 57.347656 52.601562 57.4375 52.804688 57.4375 L 57.867188 57.4375 C 58.191406 57.425781 58.457031 57.191406 58.515625 56.875 Z M 35.40625 48.019531 C 35.253906 49.332031 34.628906 50.542969 33.652344 51.429688 C 32.425781 52.195312 30.984375 52.546875 29.542969 52.433594 L 27.320312 52.433594 L 28.929688 44.148438 L 31.804688 44.148438 C 33.921875 44.148438 34.773438 44.601562 35.117188 44.980469 C 35.644531 45.90625 35.753906 47.011719 35.40625 48.019531 Z M 35.40625 48.019531 "/>
<path style=" stroke:none;fill-rule:nonzero;fill:rgb(100%,100%,100%);fill-opacity:1;" d="M 79.832031 41.664062 C 78.023438 39.851562 75.507812 38.929688 72.957031 39.140625 L 63.296875 39.140625 C 62.96875 39.140625 62.6875 39.371094 62.625 39.695312 L 58.144531 62.757812 C 58.105469 62.957031 58.160156 63.164062 58.289062 63.320312 C 58.417969 63.476562 58.613281 63.570312 58.816406 63.570312 L 63.839844 63.570312 C 64.167969 63.570312 64.449219 63.335938 64.511719 63.015625 L 65.597656 57.4375 L 69.347656 57.4375 C 71.003906 57.480469 72.65625 57.269531 74.246094 56.8125 C 75.589844 56.367188 76.816406 55.632812 77.839844 54.660156 C 79.59375 53.078125 80.777344 50.960938 81.203125 48.636719 C 81.886719 46.226562 81.375 43.636719 79.832031 41.664062 Z M 74.621094 48.019531 C 74.46875 49.332031 73.847656 50.542969 72.867188 51.429688 C 71.636719 52.195312 70.195312 52.546875 68.75 52.429688 L 66.53125 52.429688 L 68.140625 44.148438 L 71.019531 44.148438 C 73.132812 44.148438 73.984375 44.601562 74.328125 44.976562 C 74.859375 45.902344 74.96875 47.011719 74.621094 48.019531 Z M 74.621094 48.019531 "/>
<path style=" stroke:none;fill-rule:nonzero;fill:rgb(0%,0%,1.568627%);fill-opacity:1;" d="M 31.804688 43.460938 C 33.167969 43.292969 34.542969 43.671875 35.621094 44.519531 C 36.320312 45.59375 36.488281 46.933594 36.074219 48.148438 C 35.894531 49.625 35.183594 50.984375 34.070312 51.96875 C 32.726562 52.835938 31.136719 53.238281 29.542969 53.125 L 26.488281 53.125 L 28.363281 43.472656 Z M 19.566406 62.886719 L 24.589844 62.886719 L 25.78125 56.757812 L 30.085938 56.757812 C 31.667969 56.800781 33.25 56.597656 34.773438 56.160156 C 36.019531 55.746094 37.164062 55.0625 38.117188 54.152344 C 39.761719 52.671875 40.875 50.683594 41.273438 48.503906 C 41.910156 46.304688 41.464844 43.929688 40.070312 42.117188 C 38.390625 40.453125 36.0625 39.617188 33.710938 39.828125 L 24.0625 39.828125 Z M 19.566406 62.886719 "/>
<path style=" stroke:none;fill-rule:nonzero;fill:rgb(0%,0%,1.568627%);fill-opacity:1;" d="M 44.960938 33.695312 L 49.960938 33.695312 L 48.75 39.824219 L 53.191406 39.824219 C 55.230469 39.613281 57.277344 40.128906 58.972656 41.289062 C 60.113281 42.582031 60.476562 44.390625 59.925781 46.023438 L 57.839844 56.757812 L 52.78125 56.757812 L 54.765625 46.554688 C 55.046875 45.765625 54.953125 44.890625 54.515625 44.179688 C 53.792969 43.660156 52.898438 43.4375 52.015625 43.554688 L 48.03125 43.554688 L 45.460938 56.765625 L 40.460938 56.765625 Z M 44.960938 33.695312 "/>
<path style=" stroke:none;fill-rule:nonzero;fill:rgb(0%,0%,1.568627%);fill-opacity:1;" d="M 71.023438 43.460938 C 72.382812 43.292969 73.757812 43.671875 74.835938 44.519531 C 75.535156 45.59375 75.703125 46.933594 75.289062 48.148438 C 75.113281 49.625 74.398438 50.984375 73.285156 51.96875 C 71.9375 52.835938 70.347656 53.242188 68.75 53.125 L 65.695312 53.125 L 67.570312 43.472656 Z M 58.78125 62.886719 L 63.804688 62.886719 L 64.996094 56.757812 L 69.300781 56.757812 C 70.882812 56.800781 72.464844 56.597656 73.988281 56.160156 C 75.238281 55.746094 76.378906 55.0625 77.332031 54.152344 C 78.980469 52.671875 80.089844 50.683594 80.488281 48.503906 C 81.128906 46.304688 80.679688 43.929688 79.285156 42.117188 C 77.605469 40.453125 75.277344 39.617188 72.925781 39.828125 L 63.261719 39.828125 Z M 58.78125 62.886719 "/>
</g>
</svg>
