<?xml version="1.0" encoding="UTF-8"?>
<svg xmlns="http://www.w3.org/2000/svg" xmlns:xlink="http://www.w3.org/1999/xlink" width="100px" height="100px" viewBox="0 0 100 100" version="1.1">
<g id="surface1">
<path style=" stroke:none;fill-rule:nonzero;fill:rgb(0.392157%,59.607843%,20%);fill-opacity:1;" d="M 50.359375 5.574219 L 6.664062 49.355469 L 50.242188 93.023438 L 94.058594 49.246094 Z M 50.359375 5.574219 "/>
<path style=" stroke:none;fill-rule:nonzero;fill:rgb(0%,0%,0%);fill-opacity:1;" d="M 50.242188 93.132812 L 6.542969 49.355469 L 6.664062 49.246094 L 50.480469 5.359375 L 94.175781 49.136719 L 94.058594 49.246094 Z M 6.78125 49.355469 L 50.242188 92.917969 L 93.9375 49.246094 L 50.480469 5.683594 Z M 6.78125 49.355469 "/>
<path style=" stroke:none;fill-rule:nonzero;fill:rgb(40%,99.607843%,59.607843%);fill-opacity:1;" d="M 50.242188 5.683594 L 50.242188 1.871094 L 2.59375 49.570312 L 6.664062 49.570312 Z M 50.242188 5.683594 "/>
<path style=" stroke:none;fill-rule:nonzero;fill:rgb(0%,0%,0%);fill-opacity:1;" d="M 6.664062 49.570312 L 2.351562 49.570312 L 2.472656 49.464844 L 50.238281 1.65625 L 50.238281 5.683594 L 6.664062 49.574219 Z M 2.832031 49.464844 L 6.542969 49.464844 L 50.121094 5.683594 L 50.121094 2.089844 Z M 2.832031 49.464844 "/>
<path style=" stroke:none;fill-rule:nonzero;fill:rgb(27.058824%,99.607843%,0.784314%);fill-opacity:1;" d="M 50.121094 5.683594 L 50.121094 1.871094 L 97.769531 49.570312 L 93.699219 49.570312 Z M 50.121094 5.683594 "/>
<path style=" stroke:none;fill-rule:nonzero;fill:rgb(0%,0%,0%);fill-opacity:1;" d="M 97.886719 49.570312 L 93.578125 49.570312 L 50 5.792969 L 50 1.761719 L 50.121094 1.871094 Z M 93.699219 49.464844 L 97.410156 49.464844 L 50.242188 2.089844 L 50.242188 5.683594 L 93.699219 49.460938 Z M 93.699219 49.464844 "/>
<path style=" stroke:none;fill-rule:nonzero;fill:rgb(0.392157%,49.019608%,9.019608%);fill-opacity:1;" d="M 50.242188 93.242188 L 50.242188 97.054688 L 2.59375 49.464844 L 6.664062 49.464844 Z M 50.242188 93.242188 "/>
<path style=" stroke:none;fill-rule:nonzero;fill:rgb(0%,0%,0%);fill-opacity:1;" d="M 50.242188 97.273438 L 50.121094 97.164062 L 2.355469 49.355469 L 6.664062 49.355469 L 50.242188 93.242188 Z M 2.832031 49.464844 L 50.121094 96.835938 L 50.121094 93.242188 L 6.542969 49.464844 Z M 2.832031 49.464844 "/>
<path style=" stroke:none;fill-rule:nonzero;fill:rgb(0%,0%,0%);fill-opacity:1;" d="M 26.175781 88.015625 L 16.960938 88.015625 L 13.367188 85.945312 L 13.367188 17.664062 L 10.496094 17.664062 L 8.101562 15.265625 L 8.101562 7.753906 L 10.613281 5.03125 L 42.816406 5.03125 L 45.691406 7.96875 L 45.691406 15.050781 L 43.296875 17.988281 L 40.902344 17.988281 L 40.902344 40.640625 L 63.769531 17.988281 L 62.453125 17.988281 L 59.816406 15.160156 L 59.816406 7.644531 L 62.453125 5.25 L 94.894531 5.25 L 97.410156 7.863281 L 97.410156 14.941406 Z M 17.917969 84.53125 L 24.742188 84.53125 L 94.058594 13.414062 L 94.058594 9.167969 L 93.578125 8.625 L 63.769531 8.625 L 63.289062 9.058594 L 63.289062 13.632812 L 64.007812 14.398438 L 72.269531 14.398438 L 37.429688 48.808594 L 37.429688 14.398438 L 41.742188 14.398438 L 42.339844 13.742188 L 42.339844 9.386719 L 41.5 8.515625 L 12.171875 8.515625 L 11.570312 9.167969 L 11.570312 13.851562 L 11.929688 14.289062 L 16.960938 14.289062 L 16.960938 83.878906 Z M 17.917969 84.53125 "/>
<path style=" stroke:none;fill-rule:nonzero;fill:rgb(0%,36.470588%,1.568627%);fill-opacity:1;" d="M 50.121094 93.242188 L 50.121094 97.054688 L 97.769531 49.355469 L 93.699219 49.355469 Z M 50.121094 93.242188 "/>
<path style=" stroke:none;fill-rule:nonzero;fill:rgb(0%,0%,0%);fill-opacity:1;" d="M 50 97.273438 L 50 93.242188 L 93.578125 49.355469 L 97.886719 49.355469 L 97.769531 49.460938 L 50 97.269531 Z M 50.238281 93.242188 L 50.238281 96.835938 L 97.527344 49.460938 L 93.816406 49.460938 Z M 50.238281 93.242188 "/>
<path style=" stroke:none;fill-rule:nonzero;fill:rgb(0%,0%,0%);fill-opacity:1;" d="M 49.882812 97.707031 L 1.515625 49.355469 L 50 0.78125 L 98.367188 49.136719 Z M 3.070312 49.355469 L 49.882812 96.292969 L 96.929688 49.246094 L 50.121094 2.308594 Z M 3.070312 49.355469 "/>
<path style=" stroke:none;fill-rule:nonzero;fill:rgb(99.607843%,99.607843%,99.607843%);fill-opacity:1;" d="M 42.457031 9.605469 L 44.132812 8.734375 L 42.339844 6.992188 L 11.449219 6.992188 L 9.894531 8.515625 L 9.894531 14.507812 L 11.691406 16.25 L 12.527344 14.507812 L 11.453125 13.417969 L 11.453125 9.171875 L 12.289062 8.40625 L 41.859375 8.40625 Z M 42.457031 9.605469 "/>
<path style=" stroke:none;fill-rule:nonzero;fill:rgb(0%,0%,0%);fill-opacity:1;" d="M 11.691406 16.355469 L 9.777344 14.503906 L 9.777344 8.515625 L 11.453125 6.882812 L 42.457031 6.882812 L 44.375 8.734375 L 42.457031 9.714844 L 41.742188 8.515625 L 12.171875 8.515625 L 11.453125 9.167969 L 11.453125 13.308594 L 12.53125 14.394531 Z M 10.015625 14.394531 L 11.691406 16.03125 L 12.410156 14.503906 L 11.332031 13.414062 L 11.332031 9.167969 L 12.171875 8.40625 L 41.742188 8.40625 L 42.457031 9.605469 L 44.015625 8.734375 L 42.339844 7.097656 L 11.453125 7.097656 L 9.894531 8.625 L 9.894531 14.394531 Z M 10.015625 14.394531 "/>
<path style=" stroke:none;fill-rule:nonzero;fill:rgb(0%,0%,0%);fill-opacity:1;" d="M 24.023438 85.074219 L 18.15625 85.074219 L 17.199219 84.09375 L 17.199219 14.503906 L 12.167969 14.503906 L 11.09375 13.523438 L 11.09375 9.277344 L 12.050781 8.296875 L 41.382812 8.296875 L 42.457031 9.167969 L 42.457031 13.304688 L 41.261719 14.503906 L 35.753906 14.503906 L 35.753906 51.964844 L 69.035156 18.207031 L 69.035156 14.503906 L 64.007812 14.503906 L 63.050781 13.523438 L 63.050781 9.386719 L 64.246094 8.1875 L 93.097656 8.1875 L 94.296875 9.386719 L 94.296875 12.652344 Z M 18.277344 84.964844 L 24.023438 84.964844 L 94.058594 12.542969 L 94.058594 9.386719 L 92.980469 8.296875 L 64.367188 8.296875 L 63.289062 9.386719 L 63.289062 13.304688 L 64.246094 14.175781 L 69.394531 14.175781 L 69.394531 18.207031 L 35.753906 52.402344 L 35.753906 14.285156 L 41.382812 14.285156 L 42.457031 13.199219 L 42.457031 9.167969 L 41.5 8.40625 L 12.167969 8.40625 L 11.210938 9.277344 L 11.210938 13.304688 L 12.167969 14.175781 L 17.316406 14.175781 L 17.316406 83.875 L 18.273438 84.964844 Z M 18.277344 84.964844 "/>
<path style=" stroke:none;fill-rule:nonzero;fill:rgb(99.607843%,99.607843%,99.607843%);fill-opacity:1;" d="M 17.199219 14.289062 L 17.199219 83.984375 L 18.15625 84.964844 L 17.4375 86.273438 L 15.402344 84.3125 L 15.402344 16.140625 Z M 17.199219 14.289062 "/>
<path style=" stroke:none;fill-rule:nonzero;fill:rgb(0%,0%,0%);fill-opacity:1;" d="M 17.4375 86.597656 L 15.28125 84.53125 L 15.28125 16.136719 L 17.316406 14.179688 L 17.316406 84.09375 L 18.277344 85.183594 Z M 15.523438 84.421875 L 17.4375 86.273438 L 18.035156 85.074219 L 17.199219 84.09375 L 17.199219 14.503906 L 15.523438 16.140625 Z M 15.523438 84.421875 "/>
<path style=" stroke:none;fill-rule:nonzero;fill:rgb(50.196078%,50.196078%,50.196078%);fill-opacity:1;" d="M 12.289062 14.289062 L 11.8125 15.921875 L 15.523438 15.921875 L 17.558594 14.289062 Z M 12.289062 14.289062 "/>
<path style=" stroke:none;fill-rule:nonzero;fill:rgb(0%,0%,0%);fill-opacity:1;" d="M 15.523438 16.136719 L 11.691406 16.136719 L 12.289062 14.285156 L 17.914062 14.285156 L 15.519531 16.136719 Z M 11.8125 15.921875 L 15.402344 15.921875 L 17.199219 14.394531 L 12.171875 14.394531 Z M 11.8125 15.921875 "/>
<path style=" stroke:none;fill-rule:nonzero;fill:rgb(99.607843%,99.607843%,99.607843%);fill-opacity:1;" d="M 63.648438 16.246094 L 64.488281 14.503906 L 63.289062 13.417969 L 63.289062 9.714844 L 64.605469 8.296875 L 93.101562 8.296875 L 94.175781 9.714844 L 95.734375 8.625 L 94.175781 6.992188 L 63.53125 6.992188 L 61.972656 8.515625 L 61.972656 14.507812 L 63.648438 16.25 M 38.746094 44.890625 L 35.753906 52.078125 L 69.394531 18.316406 L 69.394531 14.289062 Z M 38.746094 44.890625 "/>
<path style=" stroke:none;fill-rule:nonzero;fill:rgb(0%,0%,0%);fill-opacity:1;" d="M 35.875 52.292969 L 35.753906 52.1875 L 38.746094 44.890625 L 69.515625 14.179688 L 69.515625 18.425781 Z M 38.867188 44.996094 L 36.113281 51.859375 L 69.394531 18.425781 L 69.394531 14.613281 Z M 63.648438 16.246094 L 63.527344 16.136719 L 61.972656 14.613281 L 61.972656 8.515625 L 63.527344 6.882812 L 94.296875 6.882812 L 95.972656 8.734375 L 94.296875 9.929688 L 93.21875 8.40625 L 64.605469 8.40625 L 63.289062 9.710938 L 63.289062 13.414062 L 64.484375 14.503906 Z M 62.09375 14.613281 L 63.648438 16.027344 L 64.367188 14.503906 L 63.167969 13.414062 L 63.167969 9.601562 L 64.605469 8.1875 L 93.21875 8.1875 L 94.296875 9.601562 L 95.734375 8.621094 L 94.175781 7.097656 L 63.527344 7.097656 L 62.09375 8.621094 Z M 62.09375 14.613281 "/>
<path style=" stroke:none;fill-rule:nonzero;fill:rgb(50.196078%,50.196078%,50.196078%);fill-opacity:1;" d="M 42.339844 9.386719 L 43.777344 8.40625 L 43.777344 14.285156 L 42.101562 16.027344 L 38.746094 16.027344 L 38.746094 44.996094 L 35.753906 52.183594 L 35.753906 14.285156 L 41.261719 14.285156 L 42.339844 13.414062 Z M 42.339844 9.386719 "/>
<path style=" stroke:none;fill-rule:nonzero;fill:rgb(0%,0%,0%);fill-opacity:1;" d="M 35.875 52.1875 L 35.753906 52.1875 L 35.753906 14.289062 L 41.382812 14.289062 L 42.339844 13.523438 L 42.339844 9.496094 L 44.015625 8.40625 L 44.015625 14.503906 L 42.21875 16.246094 L 38.988281 16.246094 L 38.988281 45.105469 L 35.875 52.183594 Z M 35.875 14.394531 L 35.875 51.75 L 38.746094 44.996094 L 38.746094 15.921875 L 42.101562 15.921875 L 43.777344 14.285156 L 43.777344 8.625 L 42.457031 9.496094 L 42.457031 13.523438 L 41.382812 14.394531 Z M 35.875 14.394531 "/>
<path style=" stroke:none;fill-rule:nonzero;fill:rgb(80%,80%,80%);fill-opacity:1;" d="M 64.367188 8.296875 L 63.289062 9.386719 L 63.289062 13.417969 L 64.246094 14.398438 L 69.277344 14.398438 L 69.277344 18.316406 L 35.753906 52.1875 L 35.753906 14.394531 L 41.261719 14.394531 L 42.457031 13.308594 L 42.457031 9.277344 L 41.382812 8.515625 L 12.171875 8.515625 L 11.210938 9.496094 L 11.210938 13.632812 L 12.171875 14.613281 L 17.316406 14.613281 L 17.316406 84.203125 L 18.277344 85.183594 L 24.023438 85.183594 L 94.175781 12.761719 L 94.175781 9.605469 L 93.097656 8.515625 L 64.367188 8.515625 Z M 64.367188 8.296875 "/>
<path style=" stroke:none;fill-rule:nonzero;fill:rgb(0%,0%,0%);fill-opacity:1;" d="M 24.023438 85.074219 L 18.15625 85.074219 L 17.199219 84.09375 L 17.199219 14.503906 L 12.167969 14.503906 L 11.09375 13.523438 L 11.09375 9.277344 L 12.050781 8.296875 L 41.382812 8.296875 L 42.457031 9.167969 L 42.457031 13.304688 L 41.261719 14.503906 L 35.753906 14.503906 L 35.753906 51.964844 L 69.035156 18.207031 L 69.035156 14.503906 L 64.007812 14.503906 L 63.050781 13.523438 L 63.050781 9.386719 L 64.246094 8.1875 L 93.097656 8.1875 L 94.296875 9.386719 L 94.296875 12.652344 Z M 18.277344 84.964844 L 24.023438 84.964844 L 94.058594 12.542969 L 94.058594 9.386719 L 92.980469 8.296875 L 64.367188 8.296875 L 63.289062 9.386719 L 63.289062 13.304688 L 64.246094 14.175781 L 69.394531 14.175781 L 69.394531 18.207031 L 35.753906 52.402344 L 35.753906 14.285156 L 41.382812 14.285156 L 42.457031 13.199219 L 42.457031 9.167969 L 41.5 8.40625 L 12.167969 8.40625 L 11.210938 9.277344 L 11.210938 13.304688 L 12.167969 14.175781 L 17.316406 14.175781 L 17.316406 83.875 L 18.273438 84.964844 Z M 18.277344 84.964844 "/>
<path style=" stroke:none;fill-rule:nonzero;fill:rgb(50.196078%,50.196078%,50.196078%);fill-opacity:1;" d="M 94.296875 9.496094 L 95.851562 8.625 L 95.851562 14.179688 L 25.21875 86.488281 L 17.675781 86.488281 L 18.394531 85.074219 L 24.140625 85.074219 L 94.175781 12.652344 Z M 94.296875 9.496094 "/>
<path style=" stroke:none;fill-rule:nonzero;fill:rgb(0%,0%,0%);fill-opacity:1;" d="M 25.21875 86.597656 L 17.558594 86.597656 L 18.394531 84.964844 L 24.140625 84.964844 L 94.058594 12.652344 L 94.175781 9.496094 L 95.851562 8.515625 L 95.851562 14.394531 Z M 17.796875 86.382812 L 25.101562 86.382812 L 95.734375 14.179688 L 95.734375 8.734375 L 94.296875 9.496094 L 94.175781 12.652344 L 24.140625 85.183594 L 18.394531 85.183594 Z M 17.796875 86.382812 "/>
<path style=" stroke:none;fill-rule:nonzero;fill:rgb(50.196078%,50.196078%,50.196078%);fill-opacity:1;" d="M 69.277344 14.394531 L 67.71875 16.03125 L 63.648438 16.03125 L 64.605469 14.394531 Z M 69.277344 14.394531 "/>
<path style=" stroke:none;fill-rule:nonzero;fill:rgb(0%,0%,0%);fill-opacity:1;" d="M 67.71875 16.136719 L 63.410156 16.136719 L 64.488281 14.285156 L 69.515625 14.285156 Z M 63.769531 16.03125 L 67.71875 16.03125 L 69.15625 14.503906 L 64.726562 14.503906 Z M 63.769531 16.03125 "/>
<path style=" stroke:none;fill-rule:nonzero;fill:rgb(80%,80%,80%);fill-opacity:1;" d="M 52.515625 55.125 C 52.515625 55.125 52.394531 55.125 52.394531 55.234375 L 51.078125 56.433594 L 50.957031 56.539062 L 49.640625 60.351562 C 49.640625 60.460938 49.640625 60.570312 49.761719 60.679688 L 50.839844 61.769531 C 50.957031 61.875 50.957031 61.875 51.078125 61.875 L 55.265625 61.875 C 55.386719 61.875 55.386719 61.875 55.507812 61.769531 L 56.582031 60.679688 L 56.703125 60.570312 L 57.898438 56.539062 C 57.898438 56.433594 57.898438 56.324219 57.78125 56.214844 L 56.824219 55.34375 C 56.703125 55.234375 56.703125 55.234375 56.582031 55.234375 L 52.511719 55.234375 L 52.511719 55.125 Z M 44.734375 65.90625 C 44.613281 65.90625 44.492188 66.015625 44.492188 66.125 L 44.015625 68.195312 C 44.015625 68.414062 44.132812 68.519531 44.253906 68.628906 L 46.886719 68.628906 L 40.78125 86.054688 C 40.78125 86.273438 40.78125 86.382812 41.019531 86.492188 L 50 86.492188 C 50.121094 86.492188 50.238281 86.382812 50.359375 86.273438 L 50.957031 84.421875 C 50.957031 84.203125 50.957031 84.09375 50.71875 83.984375 L 48.5625 83.984375 L 54.667969 66.34375 C 54.667969 66.125 54.667969 66.015625 54.429688 65.90625 Z M 73.105469 66.015625 C 72.988281 66.015625 72.988281 66.015625 72.988281 66.125 L 71.191406 68.195312 L 68.199219 68.195312 L 66.28125 66.125 C 66.28125 66.015625 66.164062 66.015625 66.042969 66.015625 L 58.859375 66.015625 C 58.742188 66.015625 58.621094 66.125 58.621094 66.234375 L 58.023438 68.195312 C 58.023438 68.410156 58.023438 68.519531 58.261719 68.628906 L 60.296875 68.628906 L 54.429688 85.945312 C 54.429688 86.164062 54.429688 86.273438 54.667969 86.382812 L 62.332031 86.382812 C 62.449219 86.382812 62.570312 86.273438 62.570312 86.164062 L 63.167969 84.53125 C 63.167969 84.3125 63.167969 84.203125 62.929688 84.09375 L 61.492188 84.09375 L 65.203125 72.332031 L 71.90625 72.332031 L 67.597656 86.054688 C 67.597656 86.273438 67.597656 86.378906 67.835938 86.488281 L 75.140625 86.488281 C 75.257812 86.488281 75.378906 86.382812 75.378906 86.273438 L 75.976562 84.746094 C 76.097656 84.636719 75.976562 84.421875 75.855469 84.3125 L 74.421875 84.3125 L 78.25 72.332031 L 84.714844 72.332031 L 80.40625 86.054688 C 80.40625 86.269531 80.40625 86.378906 80.644531 86.488281 L 88.667969 86.488281 C 88.785156 86.488281 88.90625 86.378906 88.90625 86.269531 L 89.503906 84.636719 C 89.503906 84.417969 89.503906 84.3125 89.265625 84.203125 L 87.589844 84.203125 L 92.378906 68.628906 L 92.378906 68.300781 L 90.941406 66.339844 C 90.820312 66.234375 90.820312 66.234375 90.703125 66.234375 L 85.074219 66.234375 C 84.957031 66.234375 84.957031 66.234375 84.835938 66.339844 L 83.039062 68.300781 L 79.929688 68.300781 L 78.132812 66.230469 C 78.011719 66.125 78.011719 66.125 77.894531 66.125 L 73.105469 66.125 Z M 73.105469 66.015625 "/>
<path style=" stroke:none;fill-rule:nonzero;fill:rgb(0%,0%,0%);fill-opacity:1;" d="M 49.882812 87.253906 L 41.023438 87.253906 C 40.902344 87.253906 40.78125 87.253906 40.664062 87.144531 C 40.0625 86.925781 39.824219 86.382812 39.945312 85.835938 L 45.691406 69.390625 L 44.015625 69.390625 C 43.417969 69.285156 43.058594 68.628906 43.296875 68.085938 L 43.777344 66.015625 C 43.894531 65.578125 44.136719 65.363281 44.613281 65.253906 L 54.191406 65.253906 C 54.3125 65.253906 54.429688 65.253906 54.550781 65.363281 C 55.148438 65.578125 55.390625 66.125 55.269531 66.667969 L 49.523438 83.332031 L 50.839844 83.332031 C 51.4375 83.550781 51.679688 84.09375 51.558594 84.636719 L 50.960938 86.488281 C 50.71875 86.925781 50.359375 87.253906 49.882812 87.253906 Z M 46.769531 67.867188 L 47.847656 67.867188 L 41.621094 85.726562 L 49.640625 85.726562 L 50 84.746094 L 47.488281 84.746094 L 53.710938 66.667969 L 45.332031 66.667969 L 44.972656 67.867188 Z M 88.550781 87.035156 L 80.289062 87.035156 C 79.691406 86.816406 79.449219 86.273438 79.570312 85.726562 L 83.640625 72.984375 L 78.734375 72.984375 L 75.378906 83.441406 L 75.621094 83.441406 C 75.738281 83.441406 75.859375 83.441406 75.980469 83.550781 C 76.578125 83.765625 76.816406 84.421875 76.578125 84.964844 L 75.980469 86.488281 C 75.859375 86.925781 75.378906 87.144531 75.019531 87.144531 L 67.480469 87.144531 C 66.878906 86.925781 66.640625 86.378906 66.761719 85.835938 L 70.832031 72.984375 L 65.5625 72.984375 L 62.332031 83.222656 L 62.570312 83.222656 C 62.691406 83.222656 62.808594 83.222656 62.929688 83.332031 C 63.527344 83.546875 63.769531 84.09375 63.648438 84.636719 L 63.050781 86.378906 C 62.929688 86.816406 62.449219 87.03125 62.089844 87.140625 L 54.550781 87.140625 C 54.429688 87.140625 54.308594 87.140625 54.191406 87.035156 C 53.589844 86.816406 53.351562 86.269531 53.472656 85.726562 L 58.980469 69.390625 L 58.140625 69.390625 C 58.019531 69.390625 57.902344 69.390625 57.78125 69.28125 C 57.183594 69.0625 56.941406 68.519531 57.0625 67.976562 L 57.660156 66.015625 C 57.78125 65.578125 58.261719 65.253906 58.621094 65.253906 L 65.683594 65.253906 C 65.921875 65.253906 66.28125 65.359375 66.402344 65.578125 L 68.195312 67.429688 L 70.472656 67.429688 L 72.148438 65.578125 C 72.265625 65.359375 72.507812 65.253906 72.746094 65.253906 L 77.535156 65.253906 C 77.773438 65.253906 78.132812 65.359375 78.253906 65.578125 L 79.929688 67.320312 L 82.441406 67.320312 L 84 65.578125 C 84.238281 65.359375 84.476562 65.253906 84.714844 65.253906 L 90.34375 65.253906 C 90.703125 65.253906 90.941406 65.359375 91.179688 65.6875 L 92.617188 67.648438 C 92.855469 67.867188 92.855469 68.300781 92.738281 68.628906 L 88.308594 83.222656 L 88.90625 83.222656 C 89.027344 83.222656 89.144531 83.222656 89.265625 83.332031 C 89.863281 83.546875 90.105469 84.09375 89.863281 84.636719 L 89.265625 86.378906 C 89.386719 86.707031 89.027344 87.03125 88.546875 87.03125 Z M 60.175781 67.867188 L 61.253906 67.867188 L 55.269531 85.507812 L 61.851562 85.507812 L 62.089844 84.636719 L 60.414062 84.636719 L 64.605469 71.351562 L 72.867188 71.351562 L 68.4375 85.511719 L 74.78125 85.511719 L 75.019531 84.855469 L 73.34375 84.855469 L 77.65625 71.460938 L 85.675781 71.460938 L 81.246094 85.621094 L 88.308594 85.621094 L 88.667969 84.75 L 86.753906 84.75 L 91.78125 68.414062 L 90.585938 66.777344 L 85.316406 66.777344 L 83.402344 68.847656 L 79.570312 68.847656 L 77.652344 66.671875 L 73.464844 66.671875 L 71.546875 68.847656 L 67.957031 68.847656 L 65.921875 66.671875 L 59.335938 66.671875 L 58.976562 67.757812 L 60.175781 67.757812 Z M 55.027344 62.53125 L 50.839844 62.53125 C 50.601562 62.53125 50.242188 62.421875 50.121094 62.203125 L 49.042969 61.117188 C 48.804688 60.789062 48.683594 60.351562 48.804688 60.027344 L 50.121094 56.214844 C 50.121094 55.996094 50.242188 55.886719 50.359375 55.777344 L 51.679688 54.582031 C 51.796875 54.472656 51.917969 54.363281 52.15625 54.363281 L 56.226562 54.363281 C 56.464844 54.363281 56.707031 54.472656 56.945312 54.691406 L 57.902344 55.5625 C 58.140625 55.777344 58.261719 56.214844 58.140625 56.648438 L 56.945312 60.679688 C 56.945312 60.898438 56.824219 61.007812 56.707031 61.117188 L 55.628906 62.203125 C 55.628906 62.421875 55.269531 62.53125 55.03125 62.53125 Z M 50.359375 60.351562 L 51.078125 61.117188 L 54.910156 61.117188 L 55.746094 60.246094 L 56.824219 56.542969 L 56.226562 55.996094 L 52.636719 55.996094 L 51.4375 56.976562 L 50.359375 60.355469 Z M 50.359375 60.351562 "/>
<path style=" stroke:none;fill-rule:nonzero;fill:rgb(80%,80%,80%);fill-opacity:1;" d="M 52.515625 55.453125 L 51.199219 56.652344 L 49.878906 60.460938 L 50.957031 61.550781 L 55.148438 61.550781 L 56.226562 60.460938 L 57.421875 56.433594 L 56.464844 55.5625 L 52.511719 55.5625 Z M 44.851562 66.234375 L 44.375 68.304688 L 47.246094 68.304688 L 41.023438 86.164062 L 49.882812 86.164062 L 50.480469 84.3125 L 48.085938 84.3125 L 54.3125 66.234375 Z M 73.105469 66.234375 L 71.191406 68.414062 L 67.957031 68.414062 L 65.921875 66.234375 L 58.859375 66.234375 L 58.261719 68.195312 L 60.535156 68.195312 L 54.550781 85.835938 L 62.09375 85.835938 L 62.691406 84.203125 L 60.894531 84.203125 L 64.847656 71.898438 L 72.269531 71.898438 L 67.839844 85.945312 L 75.023438 85.945312 L 75.621094 84.421875 L 73.824219 84.421875 L 77.773438 71.789062 L 84.839844 71.789062 L 80.410156 85.945312 L 88.308594 85.945312 L 88.910156 84.3125 L 86.875 84.3125 L 91.78125 68.410156 L 90.34375 66.453125 L 84.71875 66.453125 L 82.804688 68.519531 L 79.332031 68.519531 L 77.414062 66.34375 L 73.105469 66.34375 Z M 73.105469 66.234375 "/>
<path style=" stroke:none;fill-rule:nonzero;fill:rgb(0%,0%,0%);fill-opacity:1;" d="M 50 86.273438 L 40.902344 86.273438 L 47.128906 68.414062 L 44.253906 68.414062 L 44.851562 66.125 L 54.429688 66.125 L 48.085938 84.203125 L 50.480469 84.203125 Z M 41.140625 86.054688 L 49.878906 86.054688 L 50.359375 84.3125 L 47.964844 84.3125 L 54.070312 66.34375 L 44.972656 66.34375 L 44.492188 68.195312 L 47.367188 68.195312 Z M 88.667969 86.054688 L 80.527344 86.054688 L 84.957031 71.898438 L 78.015625 71.898438 L 74.0625 84.3125 L 75.859375 84.3125 L 75.140625 86.054688 L 67.71875 86.054688 L 72.148438 72.003906 L 64.964844 72.003906 L 61.136719 84.203125 L 62.929688 84.203125 L 62.332031 86.054688 L 54.671875 86.054688 L 60.65625 68.410156 L 58.382812 68.410156 L 59.101562 66.34375 L 66.28125 66.34375 L 68.316406 68.519531 L 71.429688 68.519531 L 73.347656 66.34375 L 78.015625 66.34375 L 79.929688 68.519531 L 83.28125 68.519531 L 85.199219 66.449219 L 90.945312 66.449219 L 92.5 68.519531 L 87.59375 84.3125 L 89.628906 84.3125 Z M 80.769531 85.835938 L 88.550781 85.835938 L 89.148438 84.3125 L 87.113281 84.3125 L 92.023438 68.304688 L 90.585938 66.34375 L 84.957031 66.34375 L 83.042969 68.414062 L 79.570312 68.414062 L 77.65625 66.234375 L 73.226562 66.234375 L 71.308594 68.414062 L 67.957031 68.414062 L 65.921875 66.234375 L 58.980469 66.234375 L 58.378906 67.976562 L 60.65625 67.976562 L 54.667969 85.617188 L 61.972656 85.617188 L 62.453125 84.09375 L 60.65625 84.09375 L 64.605469 71.570312 L 72.269531 71.570312 L 67.839844 85.617188 L 74.902344 85.617188 L 75.5 84.203125 L 73.824219 84.203125 L 77.894531 71.460938 L 85.199219 71.460938 Z M 55.027344 61.550781 L 50.71875 61.550781 L 49.640625 60.460938 L 51.078125 56.542969 L 52.515625 55.34375 L 56.464844 55.34375 L 57.421875 56.324219 L 56.226562 60.355469 L 55.03125 61.550781 Z M 50.839844 61.441406 L 54.910156 61.441406 L 55.988281 60.355469 L 57.183594 56.433594 L 56.34375 55.5625 L 52.515625 55.5625 L 51.195312 56.652344 L 49.878906 60.355469 L 50.835938 61.441406 Z M 50.839844 61.441406 "/>
</g>
</svg>
